<?xml version="1.0" encoding="utf-8"?>
<!-- Generator: Adobe Illustrator 23.0.1, SVG Export Plug-In . SVG Version: 6.00 Build 0)  -->
<svg version="1.1" id="Capa_1" xmlns="http://www.w3.org/2000/svg" xmlns:xlink="http://www.w3.org/1999/xlink" x="0px" y="0px"
	 viewBox="0 0 263 280.4" style="enable-background:new 0 0 263 280.4;" xml:space="preserve">
<style type="text/css">
	.st0{fill:none;stroke:#FAFAFA;stroke-width:8;stroke-miterlimit:10;}
</style>
<title>Recurso 2</title>
<g id="Capa_1-2">
	<path class="st0" d="M33.5,163.2v-20c6.2-1.5,12.6-2.2,19-2c10.4,0.4,21.5,0.8,29,8.7c8.7,9.2,9.9,25.8,3,35.3
		c-9.4,13-33.2,11.4-33,13c0.1,1.4,17.9-3.2,31.6,5.8c1.1,0.7,11.3,7.7,13.4,20.2c2.3,12.9-4.9,26.8-18,35h-74v-238h254v238h-30.1
		c-3.6-36.7-7.3-73.3-10.9-110c-15.7,36-31.3,64-47,100c-17.3-37-34.7-66-52-103c-3.7,37.7-7.3,75.3-11,113"/>
</g>
</svg>
